<svg xmlns="http://www.w3.org/2000/svg" width="48" height="32" viewBox="0 0 48 32">
  <g fill="none">
    <rect width="48" height="32" fill="#F3F4F5" rx="4"/>
    <g transform="translate(8 8)">
      <path fill="#5F6368" d="M13.2,12.3 L13.2,7.5 L14.1,7.5 L14.1,12.3 L13.2,12.3 Z M24.4,8.4 L23.5,10.8 L25.3,10.8 L24.4,8.4 Z M24.8,7.5 L26.1,11.2 L25.2,11.2 L24.9,10.3 L23.9,10.3 L23.6,11.2 L22.7,11.2 L24,7.5 L24.8,7.5 Z M21.5,8 L21.5,8.5 L22.5,8.5 L22.5,9.3 L21.5,9.3 L21.5,10.4 L22.6,10.4 L22.6,11.2 L20.6,11.2 L20.6,7.5 L22.6,7.5 L22.6,8 L21.5,8 Z M18.8,11.2 L18.8,7.5 L19.7,7.5 L19.7,11.2 L18.8,11.2 Z M16.9,8.3 C16.7,8.3 16.5,8.4 16.5,8.7 L16.5,8.7 L16.5,10 C16.5,10.3 16.7,10.4 16.9,10.4 C17.1,10.4 17.3,10.3 17.3,10 L17.3,10 L17.3,8.7 C17.3,8.4 17.1,8.3 16.9,8.3 L16.9,8.3 Z M16.9,7.4 C17.7,7.4 18.2,7.9 18.2,8.6 L18.2,8.6 L18.2,10.1 C18.2,10.8 17.7,11.3 16.9,11.3 C16.1,11.3 15.6,10.8 15.6,10.1 L15.6,10.1 L15.6,8.6 C15.6,7.9 16.1,7.4 16.9,7.4 L16.9,7.4 Z"/>
      <path fill="#4285F4" d="M13.7,16.3 C12.5,16.3 11.5,15.4 11.5,14.1 C11.5,12.8 12.5,11.9 13.7,11.9 C14.9,11.9 15.9,12.8 15.9,14.1 C15.9,15.4 14.9,16.3 13.7,16.3 Z M13.7,12.9 C13.1,12.9 12.6,13.4 12.6,14.1 C12.6,14.8 13.1,15.3 13.7,15.3 C14.3,15.3 14.8,14.8 14.8,14.1 C14.8,13.4 14.3,12.9 13.7,12.9 Z"/>
      <path fill="#EA4335" d="M19.3,16.3 C18.1,16.3 17.1,15.4 17.1,14.1 C17.1,12.8 18.1,11.9 19.3,11.9 C20.5,11.9 21.5,12.8 21.5,14.1 C21.5,15.4 20.5,16.3 19.3,16.3 Z M19.3,12.9 C18.7,12.9 18.2,13.4 18.2,14.1 C18.2,14.8 18.7,15.3 19.3,15.3 C19.9,15.3 20.4,14.8 20.4,14.1 C20.4,13.4 19.9,12.9 19.3,12.9 Z"/>
      <path fill="#FBBC04" d="M24.5,16.3 C23.3,16.3 22.3,15.4 22.3,14.1 C22.3,12.8 23.3,11.9 24.5,11.9 C25.7,11.9 26.7,12.8 26.7,14.1 C26.7,15.4 25.7,16.3 24.5,16.3 Z M24.5,12.9 C23.9,12.9 23.4,13.4 23.4,14.1 C23.4,14.8 23.9,15.3 24.5,15.3 C25.1,15.3 25.6,14.8 25.6,14.1 C25.6,13.4 25.1,12.9 24.5,12.9 Z"/>
      <path fill="#34A853" d="M29.7,16.2 L28.6,16.2 L28.6,12 L29.7,12 L29.7,12.5 C30,12.1 30.5,11.9 31,11.9 C32,11.9 32.7,12.8 32.7,14.1 C32.7,15.4 32,16.3 31,16.3 C30.5,16.3 30,16.1 29.7,15.7 L29.7,16.2 Z M30.8,12.9 C30.2,12.9 29.7,13.4 29.7,14.1 C29.7,14.8 30.2,15.3 30.8,15.3 C31.4,15.3 31.9,14.8 31.9,14.1 C31.9,13.4 31.4,12.9 30.8,12.9 Z"/>
      <path fill="#5F6368" d="M8.8,13.7 L8.8,12.6 L12.1,12.6 C12.1,12.9 12.2,13.1 12.2,13.4 C12.2,14 12,14.6 11.6,15 C11.2,15.4 10.6,15.7 9.8,15.7 C8.2,15.7 7,14.5 7,13 C7,11.5 8.2,10.3 9.8,10.3 C10.6,10.3 11.2,10.6 11.7,11 L11,11.7 C10.7,11.4 10.3,11.2 9.8,11.2 C8.7,11.2 7.9,12 7.9,13 C7.9,14 8.7,14.8 9.8,14.8 C10.4,14.8 10.8,14.6 11.1,14.3 C11.3,14.1 11.4,13.8 11.5,13.5 L8.8,13.5 L8.8,13.7 Z"/>
    </g>
  </g>
</svg>
