<svg xmlns="http://www.w3.org/2000/svg" width="48" height="32" viewBox="0 0 48 32">
  <g fill="none">
    <rect width="48" height="32" fill="#F3F4F5" rx="4"/>
    <g transform="translate(8 7)">
      <circle cx="10.5" cy="9" r="9" fill="#EB001B"/>
      <circle cx="21.5" cy="9" r="9" fill="#F79E1B"/>
      <path fill="#FF5F00" d="M16,14.5 C14.5,15.8 12.6,16.5 10.5,16.5 C8.4,16.5 6.5,15.7 5,14.5 C6.5,13.2 8.4,12.5 10.5,12.5 C12.6,12.5 14.5,13.3 16,14.5 Z"/>
      <path fill="#F79E1B" d="M30.8,14 L30.8,13.8 L30.7,13.8 L30.7,13.9 L30.6,13.8 L30.6,13.9 L30.8,13.9 L30.8,14 Z M30.3,14 L30.3,13.8 L30.2,13.8 L30.1,13.9 L30,13.8 L29.9,13.8 L29.9,14 L30,14 L30,13.9 L30.1,14 L30.2,14 L30.2,13.9 L30.3,13.9 L30.3,14 Z"/>
    </g>
  </g>
</svg>
