<svg xmlns="http://www.w3.org/2000/svg" width="48" height="32" viewBox="0 0 48 32">
  <g fill="none">
    <rect width="48" height="32" fill="#F3F4F5" rx="4"/>
    <g transform="translate(10 8)">
      <path fill="#253B80" d="M7.1,14.6 L7.4,12.6 L6.8,12.6 L5.5,12.6 L6.5,6.3 C6.5,6.2 6.5,6.2 6.6,6.1 C6.6,6.1 6.7,6 6.7,6 L9.5,6 C10.5,6 11.2,6.2 11.6,6.5 C11.8,6.7 11.9,6.8 12,7 C12.1,7.2 12.1,7.4 12.1,7.6 C12.1,7.7 12.1,7.8 12.1,7.9 L12.1,8.2 L12.1,8.4 L12,8.6 C12,8.7 12,8.7 11.9,8.8 C11.9,8.9 11.8,9 11.8,9.1 C11.7,9.2 11.7,9.2 11.6,9.3 C11.5,9.4 11.5,9.5 11.4,9.5 C11.3,9.6 11.2,9.7 11.1,9.7 C11,9.8 10.9,9.8 10.8,9.9 C10.7,9.9 10.5,10 10.4,10 C10.3,10 10.1,10.1 9.9,10.1 C9.8,10.1 9.6,10.1 9.4,10.1 C9.2,10.1 9,10.1 8.8,10.1 C8.7,10.1 8.5,10.1 8.4,10.1 C8.3,10.1 8.1,10.2 8,10.2 C7.9,10.2 7.8,10.3 7.7,10.3 C7.6,10.4 7.5,10.4 7.4,10.5 C7.3,10.6 7.3,10.7 7.2,10.8 L7.1,14.6 Z"/>
      <path fill="#179BD7" d="M19.9,7.6 C19.9,7.7 19.9,7.8 19.9,7.9 C19.8,8.3 19.7,8.7 19.6,9 C19.5,9.4 19.3,9.7 19.1,10 C18.9,10.3 18.7,10.6 18.4,10.8 C18.1,11 17.8,11.2 17.5,11.4 C17.2,11.6 16.8,11.7 16.4,11.8 C16,11.9 15.6,11.9 15.2,11.9 C14.7,11.9 14.2,11.8 13.8,11.7 C13.4,11.6 13,11.4 12.7,11.1 C12.4,10.9 12.1,10.5 11.9,10.2 C11.7,9.8 11.6,9.4 11.6,8.9 C11.6,8.5 11.7,8.1 11.8,7.7 C11.9,7.3 12.1,7 12.3,6.7 C12.5,6.4 12.8,6.1 13.1,5.9 C13.4,5.7 13.7,5.5 14.1,5.3 C14.4,5.2 14.8,5.1 15.2,5 C15.6,4.9 16,4.9 16.4,4.9 L16.9,4.9 L17.4,4.9 C17.6,4.9 17.7,4.9 17.9,5 C18,5 18.2,5.1 18.3,5.1 C18.4,5.2 18.5,5.2 18.6,5.3 C18.7,5.4 18.8,5.5 18.8,5.6 C18.9,5.7 18.9,5.8 19,5.9 C19,6 19.1,6.1 19.1,6.3 C19.1,6.4 19.2,6.5 19.2,6.7 C19.2,6.8 19.2,7 19.2,7.2 C19.9,7.3 19.9,7.4 19.9,7.6 Z M18.2,7.7 C18.2,7.6 18.2,7.5 18.2,7.4 C18.2,7.3 18.2,7.2 18.1,7.1 C18.1,7 18.1,6.9 18,6.8 C18,6.7 17.9,6.6 17.8,6.5 C17.7,6.4 17.7,6.4 17.6,6.3 C17.5,6.3 17.4,6.2 17.3,6.2 C17.2,6.2 17.1,6.1 17,6.1 C16.9,6.1 16.7,6.1 16.6,6.1 C16.4,6.1 16.2,6.1 16,6.1 C15.8,6.1 15.6,6.1 15.4,6.2 C15.2,6.2 15,6.3 14.8,6.4 C14.6,6.5 14.4,6.6 14.3,6.7 C14.1,6.8 14,7 13.8,7.2 C13.7,7.4 13.6,7.6 13.5,7.8 C13.4,8 13.4,8.3 13.4,8.5 C13.4,8.8 13.4,9 13.5,9.2 C13.6,9.4 13.7,9.6 13.8,9.7 C13.9,9.8 14.1,9.9 14.3,10 C14.5,10.1 14.7,10.1 14.9,10.1 C15.1,10.1 15.3,10.1 15.5,10.1 C15.7,10.1 15.9,10 16,10 C16.2,9.9 16.4,9.9 16.5,9.8 C16.7,9.7 16.8,9.6 16.9,9.5 C17,9.4 17.1,9.3 17.2,9.2 C17.3,9.1 17.4,8.9 17.5,8.8 C17.6,8.7 17.6,8.5 17.7,8.3 C17.8,8.1 17.8,8 17.8,7.8 C18.1,7.8 18.2,7.7 18.2,7.7 Z"/>
      <path fill="#253B80" d="M19.9,14.6 L20.2,12.6 L19.9,12.6 C19.8,12.6 19.7,12.6 19.6,12.7 C19.5,12.7 19.4,12.8 19.3,12.9 C19.2,13 19.1,13.1 19.1,13.3 C19,13.5 19,13.7 19,13.9 L18.5,16.9 L16.7,16.9 L17.7,10.6 L19.5,10.6 L19.3,11.7 C19.4,11.5 19.6,11.3 19.7,11.2 C19.9,11 20,10.9 20.2,10.8 C20.4,10.7 20.5,10.6 20.7,10.6 C20.9,10.5 21,10.5 21.2,10.5 L21.5,10.5 L21.2,12.5 L20.8,12.5 C20.6,12.5 20.4,12.5 20.2,12.5 C20,12.5 19.9,12.5 19.9,12.6 L19.9,14.6 Z"/>
      <path fill="#179BD7" d="M27.4,10.6 L25.6,16.9 L23.9,16.9 L25.7,10.6 L27.4,10.6 Z M24.8,9.4 C25,9.2 25.2,9 25.5,8.9 C25.8,8.8 26.1,8.7 26.4,8.7 C26.7,8.7 27,8.8 27.2,9 C27.4,9.2 27.5,9.4 27.5,9.8 C27.5,10.1 27.4,10.4 27.2,10.6 C27,10.8 26.8,11 26.5,11.1 C26.2,11.2 25.9,11.3 25.6,11.3 C25.3,11.3 25,11.2 24.8,11 C24.6,10.8 24.5,10.6 24.5,10.2 C24.5,9.9 24.6,9.6 24.8,9.4 Z"/>
      <path fill="#253B80" d="M28.7,12.8 C28.7,12.5 28.8,12.2 28.9,11.9 C29,11.6 29.1,11.3 29.3,11.1 C29.5,10.9 29.7,10.7 29.9,10.5 C30.1,10.4 30.4,10.2 30.7,10.1 C31,10 31.3,10 31.6,10 C31.9,10 32.2,10 32.4,10.1 C32.7,10.2 32.9,10.3 33.1,10.5 L33,11.9 C32.9,11.8 32.8,11.7 32.7,11.6 C32.6,11.5 32.5,11.5 32.4,11.4 C32.3,11.3 32.1,11.3 32,11.3 C31.9,11.3 31.7,11.2 31.6,11.2 C31.4,11.2 31.2,11.2 31,11.3 C30.8,11.4 30.7,11.4 30.5,11.5 C30.4,11.6 30.2,11.8 30.1,12 C30,12.2 29.9,12.4 29.9,12.7 C29.9,12.9 29.9,13.1 30,13.3 C30.1,13.5 30.2,13.6 30.4,13.6 C30.5,13.6 30.6,13.6 30.8,13.6 C30.9,13.6 31.1,13.6 31.2,13.5 C31.3,13.5 31.5,13.4 31.6,13.3 C31.7,13.2 31.9,13.1 32,13 L32.1,14.4 C31.9,14.5 31.6,14.7 31.3,14.8 C31,14.9 30.7,14.9 30.4,14.9 C30.1,14.9 29.8,14.9 29.5,14.8 C29.2,14.7 29,14.6 28.8,14.4 C28.6,14.2 28.4,14 28.3,13.7 C28.8,13.5 28.7,13.2 28.7,12.8 Z"/>
    </g>
  </g>
</svg>
