<svg xmlns="http://www.w3.org/2000/svg" width="48" height="32" viewBox="0 0 48 32">
  <g fill="none">
    <rect width="48" height="32" fill="#F3F4F5" rx="4"/>
    <path fill="#172B85" d="M18.6,12.7 L14.9,19.5 L13.5,13.9 C13.4,13.3 12.9,12.7 12.2,12.7 L7.8,12.7 L7.7,13 C8.8,13.2 10.1,13.6 10.8,14 C11.2,14.2 11.3,14.4 11.4,14.8 L13.7,23.3 L17.5,23.3 L23.5,12.7 L18.6,12.7 Z"/>
    <path fill="#F9B50B" d="M24.4,12.7 L21.2,23.3 L24.8,23.3 L28,12.7 L24.4,12.7 Z"/>
    <path fill="#172B85" d="M34.9,16.1 C34.9,15.5 35.3,15 36.1,14.9 C36.6,14.8 37.5,14.9 38.3,15.3 L38.9,12.9 C38.1,12.7 37.1,12.5 35.9,12.5 C32.5,12.5 30.1,14.3 30.1,16.9 C30.1,18.8 31.8,19.9 33.1,20.5 C34.4,21.1 34.9,21.5 34.9,22.1 C34.9,22.9 33.9,23.3 33,23.3 C31.6,23.3 30.8,23.1 29.5,22.5 L28.9,24.9 C30.2,25.4 31.6,25.6 33,25.6 C36.7,25.6 38.9,23.8 38.9,21 C38.9,18.8 37.2,17.7 35.9,17.1 C34.7,16.5 34.9,16 34.9,16.1 Z"/>
    <path fill="#172B85" d="M42.9,12.7 L40,12.7 C39.3,12.7 38.8,13 38.6,13.7 L34.7,23.3 L38.3,23.3 L38.9,21.5 L42.3,21.5 L42.6,23.3 L45.8,23.3 L42.9,12.7 Z M39.7,19.2 L41,15.3 L41.9,19.2 L39.7,19.2 Z"/>
  </g>
</svg>
